<?xml version="1.0" encoding="utf-8"?>
<!-- Generator: Adobe Illustrator 23.0.1, SVG Export Plug-In . SVG Version: 6.00 Build 0)  -->
<svg version="1.1" id="Layer_1" xmlns="http://www.w3.org/2000/svg" xmlns:xlink="http://www.w3.org/1999/xlink" x="0px" y="0px"
	 viewBox="0 0 524.29 63.1" style="enable-background:new 0 0 524.29 63.1;" xml:space="preserve">
<style type="text/css">
	.st0{clip-path:url(#SVGID_2_);}
	.st1{clip-path:url(#SVGID_2_);fill:#797A7D;}
	.st2{clip-path:url(#SVGID_2_);fill:#009CD9;}
	.st3{clip-path:url(#SVGID_6_);fill:#009CD9;}
	.st4{clip-path:url(#SVGID_6_);fill:#797A7D;}
	.st5{clip-path:url(#SVGID_6_);fill:none;stroke:#009CD9;stroke-width:0.055;stroke-miterlimit:10;}
	.st6{clip-path:url(#SVGID_6_);fill:none;stroke:#009CD9;stroke-width:0.311;stroke-miterlimit:10;}
</style>
<g>
	<defs>
		<rect id="SVGID_1_" x="-36.03" y="-327.1" width="595.28" height="841.89"/>
	</defs>
	<clipPath id="SVGID_2_">
		<use xlink:href="#SVGID_1_"  style="overflow:visible;"/>
	</clipPath>
	<g class="st0">
		<defs>
			<rect id="SVGID_3_" x="-36.03" y="-327.1" width="595.28" height="841.89"/>
		</defs>
		<clipPath id="SVGID_4_">
			<use xlink:href="#SVGID_3_"  style="overflow:visible;"/>
		</clipPath>
	</g>
	<rect x="7.89" y="30.46" class="st1" width="33.38" height="9.8"/>
	<rect x="7.86" y="0.07" class="st1" width="33.38" height="9.77"/>
	<rect x="-0.03" y="15.33" class="st2" width="33.58" height="9.19"/>
	<g class="st0">
		<defs>
			<rect id="SVGID_5_" x="-36.03" y="-327.1" width="595.28" height="841.89"/>
		</defs>
		<clipPath id="SVGID_6_">
			<use xlink:href="#SVGID_5_"  style="overflow:visible;"/>
		</clipPath>
		<path class="st3" d="M343.83,39.81l19.54,0.01v-9.8l-17.13,0.01c-2.92,0-4.14-2.26-5.27-5.95h19.08l0.05-9.19h-19.13
			c0.26-1.81,2.04-5.11,4.55-5.11h17.85V0h-19.45c-5.95,0-10.77,5.39-10.81,12.07l-0.08,15.52
			C332.99,34.33,337.84,39.81,343.83,39.81"/>
		<rect x="57.12" y="0" class="st3" width="10.06" height="39.82"/>
		<path class="st3" d="M74.06,0v39.82h10.06V9.77h9.56c1.3,0,2.35,1.18,2.35,2.64v27.4h10.59V13.23C106.62,5.92,101.35,0,94.85,0
			H74.06z"/>
		<path class="st3" d="M144.54,0v9.77h-18.12c-1.69,0-3.06,1.54-3.06,3.43v13.54c0,1.8,1.3,3.27,2.91,3.27h18.27v9.8h-20.52
			c-5.62,0-10.18-5.12-10.18-11.44V11.45c0-6.32,4.56-11.45,10.18-11.45H144.54z"/>
		<rect x="151.42" y="0" class="st3" width="9.8" height="39.82"/>
		<path class="st3" d="M379.74,13.21v13.54c0,1.8,1.3,3.27,2.91,3.27h11.1v-5.19h-10.6v-8.03h17.76v8.03h-0.01v14.99h-20.49
			c-5.62,0-10.19-5.12-10.19-11.44V11.45c0-6.32,4.56-11.45,10.19-11.45h20.52v9.77h-18.12C381.11,9.77,379.74,11.31,379.74,13.21"
			/>
		<rect x="165.6" y="15.33" class="st4" width="8.2" height="9.19"/>
		<rect x="320.6" y="15.33" class="st4" width="8.2" height="9.19"/>
		<path class="st4" d="M187.92,39.82V24.08h12.18v-9.19h-12.18l-0.01-1.8c-0.01-1.82,1.31-3.31,2.93-3.31h14.55V0h-14.57
			c-7.16,0-12.96,6.52-12.96,14.57v25.25H187.92z"/>
		<path class="st4" d="M221.43,0l-0.03,27.04c0,1.65,1.19,2.99,2.66,2.99l15.1-0.01v9.8l-14.44-0.01c-6.93,0-12.54-6.31-12.54-14.1
			L212.16,0H221.43z"/>
		<path class="st4" d="M255.88,39.81l19.54,0.01v-9.8l-17.13,0.01c-2.92,0-4.14-2.26-5.27-5.95h19.08l-0.01-9.19h-19.07
			c0.26-1.81,2.04-5.11,4.55-5.11h17.85V0h-19.45c-5.95,0-10.77,5.39-10.81,12.07l-0.08,15.52
			C245.04,34.33,249.89,39.81,255.88,39.81"/>
		<polygon class="st4" points="308.1,20.1 321.68,39.8 310.04,39.82 302.38,29.05 294.57,39.82 281.95,39.82 296.18,19.43 
			282.56,-0.14 294.64,-0.14 302.2,10.54 309.76,-0.07 321.68,-0.07 		"/>
		<polygon class="st3" points="445.32,-0.14 432.07,20.58 431.41,21.62 431.41,39.82 421.34,39.82 421.34,21.34 420.43,19.93 
			406.56,-0.01 418.34,-0.01 421.34,4.23 426.31,11.25 431.41,4.1 434.49,-0.01 		"/>
		<polygon class="st3" points="523.97,-0.13 523.97,10.89 511.34,10.89 511.34,39.82 501.54,39.82 501.54,10.89 488.53,10.89 
			488.53,-0.13 		"/>
		<path class="st3" d="M484.54,11.89c-0.03-2.15-0.57-4.19-1.49-5.97c-1.93-3.74-5.55-5.99-9.4-5.99h-22.37v39.97h7.6v-0.08h2.22
			v-15.5h12.53c4.14,0,7.97-2.6,9.79-6.78C484.17,15.81,484.57,13.89,484.54,11.89 M475.07,14.54c-0.69,0.77-1.64,1.25-2.69,1.25
			h-11.25V7.24h11.25c2.1,0,3.81,1.91,3.81,4.28C476.19,12.7,475.76,13.76,475.07,14.54"/>
		<path class="st3" d="M112.87,47.58l-8.46,0.01L104.44,63h3.33l0.03-5.18h5.08c2.13,0,3.86-1.68,3.86-3.76v-2.73
			C116.74,49.26,115.01,47.58,112.87,47.58 M114.19,52.53c0,1.13-1.02,2.05-2.27,2.05h-3.9c-0.12,0-0.22-0.09-0.22-0.2v-4.24
			c0-0.11,0.1-0.2,0.22-0.2h3.9c1.25,0,2.27,0.92,2.27,2.05V52.53z"/>
		<path class="st3" d="M65.65,47.58l-8.46,0.01L57.21,63h3.33l0.03-5.18h5.08c2.13,0,3.86-1.68,3.86-3.76v-2.73
			C69.51,49.26,67.78,47.58,65.65,47.58 M66.96,52.53c0,1.13-1.02,2.05-2.27,2.05h-3.9c-0.12,0-0.22-0.09-0.22-0.2v-4.24
			c0-0.11,0.1-0.2,0.22-0.2h3.9c1.25,0,2.27,0.92,2.27,2.05V52.53z"/>
		<path class="st3" d="M390.93,47.58l-8.51,0.01l0.02,15.52h3.35l0.03-5.21h5.12c2.15,0,3.89-1.7,3.89-3.79v-2.75
			C394.82,49.27,393.08,47.58,390.93,47.58 M392.26,52.56c0,1.14-1.02,2.07-2.29,2.07h-3.93c-0.12,0-0.22-0.09-0.22-0.2v-4.27
			c0-0.11,0.1-0.2,0.22-0.2h3.93c1.26,0,2.29,0.92,2.29,2.07V52.56z"/>
		<path class="st3" d="M96.04,62.97l5.33,0.04v-2.55h-5.8c-1.52,0-2.75-1.09-2.78-2.46l-0.02-1.14h8.98v-2.98l-9.08-0.01v-1.01
			c0-1.39,1.25-2.51,2.78-2.51h6.29v-2.77H96.2c-2.92,0-5.57,1.54-6.78,3.94l-0.11,0.21c-0.44,0.87-0.66,1.82-0.66,2.77v1.74
			c0,1.43,0.5,2.81,1.43,3.96C91.48,61.93,93.69,62.95,96.04,62.97"/>
		<path class="st3" d="M142.19,62.94l5.32,0.04v-2.54h-5.79c-1.51,0-2.75-1.09-2.78-2.46l-0.03-1.14h8.96v-2.97l-9.06-0.01v-1.01
			c0-1.39,1.24-2.51,2.78-2.51h6.28v-2.76h-5.53c-2.92,0-5.56,1.54-6.76,3.94l-0.11,0.21c-0.44,0.87-0.66,1.81-0.66,2.77v1.74
			c0,1.42,0.5,2.81,1.43,3.96C137.64,61.91,139.84,62.93,142.19,62.94"/>
		<path class="st3" d="M328.26,63v-6.48h9.02v-2.25h-9.07v-1.8c0-1.89,1.89-2.14,1.89-2.14h1.55h6.27v-2.75h-5.51h-2.69
			c-1.49,0-2.92,0.6-3.83,1.66c-0.44,0.52-0.77,1.15-0.77,1.88V63H328.26z"/>
		<path class="st5" d="M328.26,63v-6.48h9.02v-2.25h-9.07v-1.8c0-1.89,1.89-2.14,1.89-2.14h1.55h6.27v-2.75h-5.51h-2.69
			c-1.49,0-2.92,0.6-3.83,1.66c-0.44,0.52-0.77,1.15-0.77,1.88V63H328.26z"/>
		<path class="st3" d="M415.03,55.37L415.03,55.37c0,2.82,2.53,5.1,5.64,5.1h4.3v2.59l-5.74,0.03c-2.37-0.01-4.6-1.04-6-2.77
			c-0.47-0.58-0.83-1.22-1.08-1.9c-0.24-0.67-0.37-1.38-0.37-2.1v-1.76c0-0.96,0.23-1.92,0.67-2.79l0.11-0.22
			c1.21-2.42,3.89-3.98,6.83-3.98h5.58v2.79l-4.33-0.09C417.55,50.29,415.04,52.57,415.03,55.37"/>
		<path class="st3" d="M211.07,47.58c-4.14,0-7.49,3.47-7.49,7.75s3.35,7.75,7.49,7.75c4.13,0,7.49-3.47,7.49-7.75
			S215.2,47.58,211.07,47.58 M211.12,60.94c-2.84,0-5.14-2.49-5.14-5.57s2.3-5.57,5.14-5.57c2.84,0,5.14,2.49,5.14,5.57
			S213.95,60.94,211.12,60.94"/>
		<path class="st5" d="M211.07,47.58c-4.14,0-7.49,3.47-7.49,7.75s3.35,7.75,7.49,7.75c4.13,0,7.49-3.47,7.49-7.75
			S215.2,47.58,211.07,47.58z M211.12,60.94c-2.84,0-5.14-2.49-5.14-5.57s2.3-5.57,5.14-5.57c2.84,0,5.14,2.49,5.14,5.57
			S213.95,60.94,211.12,60.94z"/>
		<path class="st3" d="M347.59,47.58c-4.11,0-7.45,3.45-7.45,7.71s3.33,7.71,7.45,7.71c4.11,0,7.45-3.45,7.45-7.71
			S351.71,47.58,347.59,47.58 M347.64,60.87c-2.82,0-5.11-2.48-5.11-5.54c0-3.06,2.29-5.54,5.11-5.54c2.82,0,5.11,2.48,5.11,5.54
			C352.76,58.39,350.47,60.87,347.64,60.87"/>
		<path class="st6" d="M347.59,47.58c-4.11,0-7.45,3.45-7.45,7.71s3.33,7.71,7.45,7.71c4.11,0,7.45-3.45,7.45-7.71
			S351.71,47.58,347.59,47.58z M347.64,60.87c-2.82,0-5.11-2.48-5.11-5.54c0-3.06,2.29-5.54,5.11-5.54c2.82,0,5.11,2.48,5.11,5.54
			C352.76,58.39,350.47,60.87,347.64,60.87z"/>
		<path class="st3" d="M277.1,47.58c-4.14,0-7.49,3.47-7.49,7.76c0,4.29,3.36,7.76,7.49,7.76s7.49-3.47,7.49-7.76
			C284.59,51.06,281.24,47.58,277.1,47.58 M277.15,60.95c-2.84,0-5.15-2.49-5.15-5.57c0-3.08,2.3-5.57,5.15-5.57
			c2.84,0,5.14,2.49,5.14,5.57C282.3,58.46,279.99,60.95,277.15,60.95"/>
		<path class="st5" d="M277.1,47.58c-4.14,0-7.49,3.47-7.49,7.76c0,4.29,3.36,7.76,7.49,7.76s7.49-3.47,7.49-7.76
			C284.59,51.06,281.24,47.58,277.1,47.58z M277.15,60.95c-2.84,0-5.15-2.49-5.15-5.57c0-3.08,2.3-5.57,5.15-5.57
			c2.84,0,5.14,2.49,5.14,5.57C282.3,58.46,279.99,60.95,277.15,60.95z"/>
		<path class="st3" d="M220.86,47.67l0,10.65c0,2.58,2.32,4.68,5.19,4.68h4.41c0.05,0,0.1-0.04,0.1-0.09v-2.46
			c0-0.05-0.04-0.09-0.1-0.09l-4.76-0.01c-1.05,0-1.89-0.77-1.9-1.71l-0.08-10.97c0-0.05-0.05-0.09-0.1-0.09h-2.65
			C220.9,47.58,220.86,47.62,220.86,47.67"/>
		<path class="st5" d="M220.86,47.67l0,10.65c0,2.58,2.32,4.68,5.19,4.68h4.41c0.05,0,0.1-0.04,0.1-0.09v-2.46
			c0-0.05-0.04-0.09-0.1-0.09l-4.76-0.01c-1.05,0-1.89-0.77-1.9-1.71l-0.08-10.97c0-0.05-0.05-0.09-0.1-0.09h-2.65
			C220.9,47.58,220.86,47.62,220.86,47.67z"/>
		<path class="st3" d="M246.51,47.58v10.58c0,2.68-2.4,4.84-5.37,4.84h-2.68c-2.96,0-5.36-2.17-5.36-4.84V47.58h2.61v10.26
			c0,1.45,1.14,2.63,2.55,2.63h2.62c1.41,0,2.55-1.18,2.55-2.63V47.58H246.51z"/>
		<path class="st5" d="M246.51,47.58v10.58c0,2.68-2.4,4.84-5.37,4.84h-2.68c-2.96,0-5.36-2.17-5.36-4.84V47.58h2.61v10.26
			c0,1.45,1.14,2.63,2.55,2.63h2.62c1.41,0,2.55-1.18,2.55-2.63V47.58H246.51z"/>
		<polygon class="st3" points="262.4,47.58 262.4,50.28 257.17,50.28 257.17,63.1 253.43,63.1 253.43,50.28 247.99,50.28 
			247.99,47.58 		"/>
		<polygon class="st5" points="262.4,47.58 262.4,50.28 257.17,50.28 257.17,63.1 253.43,63.1 253.43,50.28 247.99,50.28 
			247.99,47.58 		"/>
		<rect x="263.94" y="47.58" class="st3" width="3.69" height="15.52"/>
		<rect x="263.94" y="47.58" class="st5" width="3.69" height="15.52"/>
		<rect x="474.84" y="47.51" class="st3" width="3.74" height="15.52"/>
		<rect x="474.84" y="47.51" class="st5" width="3.74" height="15.52"/>
		<polygon class="st3" points="300.57,47.58 300.57,62.99 296.98,62.99 289.88,52.76 289.88,62.99 286.29,62.99 286.29,47.58 
			289.88,47.58 296.98,57.59 296.98,47.58 		"/>
		<polygon class="st5" points="300.57,47.58 300.57,62.99 296.98,62.99 289.88,52.76 289.88,62.99 286.29,62.99 286.29,47.58 
			289.88,47.58 296.98,57.59 296.98,47.58 		"/>
		<polygon class="st3" points="495.65,47.58 495.65,62.99 492.05,62.99 484.96,52.76 484.96,62.99 481.36,62.99 481.36,47.58 
			484.96,47.58 492.05,57.59 492.05,47.58 		"/>
		<polygon class="st5" points="495.65,47.58 495.65,62.99 492.05,62.99 484.96,52.76 484.96,62.99 481.36,62.99 481.36,47.58 
			484.96,47.58 492.05,57.59 492.05,47.58 		"/>
		<path class="st3" d="M404.34,47.58h-3.68L393.77,63h3.49l1.45-4.02h7.24l1.37,4.02h3.8L404.34,47.58z M399.43,56.65l2.85-6l2.85,6
			H399.43z"/>
		<path class="st3" d="M451.89,47.58h-3.68L441.31,63h3.49l1.45-4.02h7.24l1.37,4.02h3.8L451.89,47.58z M446.97,56.65l2.85-6l2.85,6
			H446.97z"/>
		<path class="st5" d="M451.89,47.58h-3.68L441.31,63h3.49l1.45-4.02h7.24l1.37,4.02h3.8L451.89,47.58z M446.97,56.65l2.85-6l2.85,6
			H446.97z"/>
		<polygon class="st3" points="432.72,55.66 440.06,63.1 435.6,63.1 430.04,57.45 430.04,63.03 427.19,63.03 427.19,47.58 
			429.94,47.58 429.95,49.94 429.94,54.22 429.98,54.18 429.99,54.17 436.12,47.77 440.56,47.77 		"/>
		<path class="st3" d="M500.93,55.37L500.93,55.37c0,2.82,2.53,5.1,5.64,5.1l1.71,0.04v-3.87h-5.1v-2.32h7.69v8.78h-5.74
			c-2.37-0.01-4.6-1.04-6-2.77c-0.47-0.58-0.83-1.22-1.08-1.9c-0.24-0.67-0.37-1.38-0.37-2.1v-1.76c0-0.96,0.23-1.92,0.67-2.79
			l0.11-0.22c1.21-2.42,3.89-3.98,6.83-3.98h5.58v2.79l-4.33-0.09C503.44,50.29,500.93,52.57,500.93,55.37"/>
		<path class="st5" d="M500.93,55.37L500.93,55.37c0,2.82,2.53,5.1,5.64,5.1l1.71,0.04v-3.87h-5.1v-2.32h7.69v8.78h-5.74
			c-2.37-0.01-4.6-1.04-6-2.77c-0.47-0.58-0.83-1.22-1.08-1.9c-0.24-0.67-0.37-1.38-0.37-2.1v-1.76c0-0.96,0.23-1.92,0.67-2.79
			l0.11-0.22c1.21-2.42,3.89-3.98,6.83-3.98h5.58v2.79l-4.33-0.09C503.44,50.29,500.93,52.57,500.93,55.37z"/>
		<path class="st3" d="M462.2,55.29L462.2,55.29c0,2.8,2.5,5.06,5.59,5.06l1.7,0.04v-3.84h-5.05v-2.3h7.61v8.7h-5.69
			c-2.35-0.02-4.55-1.03-5.94-2.75c-0.47-0.57-0.82-1.21-1.07-1.88c-0.24-0.67-0.37-1.37-0.37-2.08V54.5c0-0.95,0.23-1.9,0.66-2.77
			l0.11-0.21c1.2-2.4,3.85-3.94,6.77-3.94h5.53v2.76l-4.29-0.09C464.69,50.27,462.21,52.52,462.2,55.29"/>
		<path class="st5" d="M462.2,55.29L462.2,55.29c0,2.8,2.5,5.06,5.59,5.06l1.7,0.04v-3.84h-5.05v-2.3h7.61v8.7h-5.69
			c-2.35-0.02-4.55-1.03-5.94-2.75c-0.47-0.57-0.82-1.21-1.07-1.88c-0.24-0.67-0.37-1.37-0.37-2.08V54.5c0-0.95,0.23-1.9,0.66-2.77
			l0.11-0.21c1.2-2.4,3.85-3.94,6.77-3.94h5.53v2.76l-4.29-0.09C464.69,50.27,462.21,52.52,462.2,55.29z"/>
		<path class="st3" d="M315.63,47.67v2.28h-8.3c-0.08-0.01-1.25-0.1-1.93,0.69c-0.38,0.44-0.41,0.93-0.41,1.11
			c-0.02,0.27-0.02,0.72,0.21,1.21c0.01,0.04,0.03,0.07,0.05,0.1c0.43,0.84,1.37,1.38,2.4,1.41c1.63,0.05,3.26,0.1,4.89,0.15
			c0.75,0.02,1.48,0.28,2.02,0.76c0.03,0.03,0.07,0.06,0.1,0.09c0.15,0.14,0.26,0.29,0.36,0.42c0.07,0.1,0.15,0.25,0.25,0.44
			c0.85,1.75,0.63,3.22,0.63,3.22c-0.08,0.56-0.21,1.49-1.03,2.32c-0.9,0.92-2.06,1.15-2.46,1.21h-9.98v-2.7l8.57,0
			c1.07,0,2.12-0.09,2.43-1.02c0.1-0.37,0.1-0.65,0.1-0.74c0.02-0.17-0.09-0.59-0.21-0.84c-0.17-0.36-0.41-0.51-0.72-0.65
			c-0.32-0.14-1.27-0.19-1.62-0.19h-3.4c-1.92,0-3.72-0.94-4.6-2.48c-0.37-0.66-0.61-1.46-0.55-2.44c0.01-0.23,0.07-1.75,1.13-3.06
			c0.22-0.28,0.62-0.75,1.34-1.11c0,0,0.01,0,0.01,0c0.37-0.18,0.79-0.27,1.21-0.27C309.28,47.61,312.46,47.64,315.63,47.67"/>
		<path class="st5" d="M315.63,47.67v2.28h-8.3c-0.08-0.01-1.25-0.1-1.93,0.69c-0.38,0.44-0.41,0.93-0.41,1.11
			c-0.02,0.27-0.02,0.72,0.21,1.21c0.01,0.04,0.03,0.07,0.05,0.1c0.43,0.84,1.37,1.38,2.4,1.41c1.63,0.05,3.26,0.1,4.89,0.15
			c0.75,0.02,1.48,0.28,2.02,0.76c0.03,0.03,0.07,0.06,0.1,0.09c0.15,0.14,0.26,0.29,0.36,0.42c0.07,0.1,0.15,0.25,0.25,0.44
			c0.85,1.75,0.63,3.22,0.63,3.22c-0.08,0.56-0.21,1.49-1.03,2.32c-0.9,0.92-2.06,1.15-2.46,1.21h-9.98v-2.7l8.57,0
			c1.07,0,2.12-0.09,2.43-1.02c0.1-0.37,0.1-0.65,0.1-0.74c0.02-0.17-0.09-0.59-0.21-0.84c-0.17-0.36-0.41-0.51-0.72-0.65
			c-0.32-0.14-1.27-0.19-1.62-0.19h-3.4c-1.92,0-3.72-0.94-4.6-2.48c-0.37-0.66-0.61-1.46-0.55-2.44c0.01-0.23,0.07-1.75,1.13-3.06
			c0.22-0.28,0.62-0.75,1.34-1.11c0,0,0.01,0,0.01,0c0.37-0.18,0.79-0.27,1.21-0.27C309.28,47.61,312.46,47.64,315.63,47.67z"/>
		<path class="st3" d="M201.34,47.67v2.28h-8.3c-0.08-0.01-1.25-0.1-1.93,0.69c-0.38,0.44-0.41,0.93-0.41,1.11
			c-0.02,0.27-0.02,0.72,0.21,1.21c0.01,0.04,0.03,0.07,0.05,0.1c0.43,0.84,1.37,1.38,2.4,1.41c1.63,0.05,3.26,0.1,4.89,0.15
			c0.75,0.02,1.48,0.28,2.02,0.76c0.03,0.03,0.07,0.06,0.1,0.09c0.15,0.14,0.26,0.29,0.36,0.42c0.07,0.1,0.15,0.25,0.25,0.44
			c0.85,1.75,0.63,3.22,0.63,3.22c-0.08,0.56-0.21,1.49-1.03,2.32c-0.9,0.92-2.06,1.15-2.46,1.21h-9.98v-2.7l8.57,0
			c1.07,0,2.12-0.09,2.43-1.02c0.1-0.37,0.1-0.65,0.1-0.74c0.02-0.17-0.09-0.59-0.21-0.84c-0.17-0.36-0.41-0.51-0.72-0.65
			c-0.32-0.14-1.27-0.19-1.62-0.19h-3.41c-1.92,0-3.72-0.94-4.6-2.48c-0.37-0.66-0.61-1.46-0.55-2.44c0.01-0.23,0.07-1.75,1.13-3.06
			c0.22-0.28,0.62-0.75,1.34-1.11c0,0,0.01,0,0.01,0c0.37-0.18,0.79-0.27,1.21-0.27C194.99,47.61,198.16,47.64,201.34,47.67"/>
		<path class="st5" d="M201.34,47.67v2.28h-8.3c-0.08-0.01-1.25-0.1-1.93,0.69c-0.38,0.44-0.41,0.93-0.41,1.11
			c-0.02,0.27-0.02,0.72,0.21,1.21c0.01,0.04,0.03,0.07,0.05,0.1c0.43,0.84,1.37,1.38,2.4,1.41c1.63,0.05,3.26,0.1,4.89,0.15
			c0.75,0.02,1.48,0.28,2.02,0.76c0.03,0.03,0.07,0.06,0.1,0.09c0.15,0.14,0.26,0.29,0.36,0.42c0.07,0.1,0.15,0.25,0.25,0.44
			c0.85,1.75,0.63,3.22,0.63,3.22c-0.08,0.56-0.21,1.49-1.03,2.32c-0.9,0.92-2.06,1.15-2.46,1.21h-9.98v-2.7l8.57,0
			c1.07,0,2.12-0.09,2.43-1.02c0.1-0.37,0.1-0.65,0.1-0.74c0.02-0.17-0.09-0.59-0.21-0.84c-0.17-0.36-0.41-0.51-0.72-0.65
			c-0.32-0.14-1.27-0.19-1.62-0.19h-3.41c-1.92,0-3.72-0.94-4.6-2.48c-0.37-0.66-0.61-1.46-0.55-2.44c0.01-0.23,0.07-1.75,1.13-3.06
			c0.22-0.28,0.62-0.75,1.34-1.11c0,0,0.01,0,0.01,0c0.37-0.18,0.79-0.27,1.21-0.27C194.99,47.61,198.16,47.64,201.34,47.67z"/>
		<path class="st3" d="M178.01,47.67v2.28h-8.3c-0.08-0.01-1.25-0.1-1.93,0.69c-0.38,0.44-0.41,0.93-0.41,1.11
			c-0.02,0.27-0.02,0.72,0.21,1.21c0.01,0.04,0.03,0.07,0.05,0.1c0.43,0.84,1.37,1.38,2.4,1.41c1.63,0.05,3.26,0.1,4.89,0.15
			c0.75,0.02,1.48,0.28,2.02,0.76c0.03,0.03,0.07,0.06,0.1,0.09c0.15,0.14,0.26,0.29,0.36,0.42c0.07,0.1,0.15,0.25,0.25,0.44
			c0.85,1.75,0.63,3.22,0.63,3.22c-0.08,0.56-0.21,1.49-1.03,2.32c-0.9,0.92-2.06,1.15-2.46,1.21h-9.98v-2.7l8.57,0
			c1.07,0,2.12-0.09,2.43-1.02c0.1-0.37,0.1-0.65,0.1-0.74c0.02-0.17-0.09-0.59-0.21-0.84c-0.17-0.36-0.41-0.51-0.72-0.65
			c-0.32-0.14-1.27-0.19-1.62-0.19h-3.41c-1.92,0-3.72-0.94-4.6-2.48c-0.37-0.66-0.61-1.46-0.55-2.44c0.01-0.23,0.07-1.75,1.13-3.06
			c0.22-0.28,0.62-0.75,1.34-1.11c0,0,0.01,0,0.01,0c0.37-0.18,0.79-0.27,1.21-0.27C171.66,47.61,174.83,47.64,178.01,47.67"/>
		<path class="st3" d="M162.8,47.67v2.28h-8.3c-0.08-0.01-1.25-0.1-1.93,0.69c-0.38,0.44-0.41,0.93-0.41,1.11
			c-0.02,0.27-0.02,0.72,0.21,1.21c0.01,0.04,0.03,0.07,0.05,0.1c0.43,0.84,1.37,1.38,2.4,1.41c1.63,0.05,3.26,0.1,4.89,0.15
			c0.75,0.02,1.48,0.28,2.02,0.76c0.03,0.03,0.07,0.06,0.1,0.09c0.15,0.14,0.26,0.29,0.36,0.42c0.07,0.1,0.15,0.25,0.25,0.44
			c0.85,1.75,0.63,3.22,0.63,3.22c-0.08,0.56-0.21,1.49-1.03,2.32c-0.9,0.92-2.06,1.15-2.46,1.21h-9.98v-2.7l8.57,0
			c1.07,0,2.12-0.09,2.43-1.02c0.1-0.37,0.1-0.65,0.1-0.74c0.02-0.17-0.09-0.59-0.21-0.84c-0.17-0.36-0.41-0.51-0.72-0.65
			c-0.32-0.14-1.27-0.19-1.62-0.19h-3.41c-1.92,0-3.72-0.94-4.6-2.48c-0.37-0.66-0.61-1.46-0.55-2.44c0.01-0.23,0.07-1.75,1.13-3.06
			c0.22-0.28,0.62-0.75,1.34-1.11c0,0,0.01,0,0.01,0c0.37-0.18,0.79-0.27,1.21-0.27C156.45,47.61,159.62,47.64,162.8,47.67"/>
		<path class="st3" d="M83.38,55.29c4.1-0.07,3.41-3.9,3.41-3.9c-0.12-0.87-0.47-1.56-0.92-2.09c-0.91-1.1-2.36-1.71-3.88-1.71
			h-9.39V63h3.88v-6.1h5.41c1.6,0.18,1.6,2.07,1.6,2.08V63h3.35v-5.02C86.83,55.73,83.38,55.29,83.38,55.29 M82.08,54.01h-5.41v-3.8
			h5.41c1.16,0,2.1,0.85,2.1,1.9c0,0.52-0.24,1-0.61,1.34C83.19,53.8,82.66,54.01,82.08,54.01"/>
		<path class="st3" d="M129.63,55.29c4.1-0.07,3.41-3.9,3.41-3.9c-0.12-0.87-0.47-1.56-0.92-2.09c-0.91-1.1-2.36-1.71-3.88-1.71
			h-9.39V63h3.88v-6.1h5.41c1.6,0.18,1.6,2.07,1.6,2.08V63h3.35v-5.02C133.08,55.73,129.63,55.29,129.63,55.29 M128.34,54.01h-5.41
			v-3.8h5.41c1.16,0,2.1,0.85,2.1,1.9c0,0.52-0.24,1-0.61,1.34C129.44,53.8,128.92,54.01,128.34,54.01"/>
		<path class="st3" d="M367.96,55.34c4.12-0.07,3.43-3.93,3.43-3.93c-0.12-0.88-0.47-1.57-0.92-2.1c-0.92-1.1-2.38-1.73-3.9-1.73
			h-9.45V63.1h3.91v-6.14h5.44c1.61,0.18,1.61,2.08,1.61,2.09v4.05h3.37v-5.05C371.43,55.78,367.96,55.34,367.96,55.34
			 M366.66,54.05h-5.44v-3.82h5.44c1.17,0,2.11,0.85,2.11,1.91c0,0.53-0.24,1-0.62,1.35C367.77,53.84,367.24,54.05,366.66,54.05"/>
		<path class="st5" d="M367.96,55.34c4.12-0.07,3.43-3.93,3.43-3.93c-0.12-0.88-0.47-1.57-0.92-2.1c-0.92-1.1-2.38-1.73-3.9-1.73
			h-9.45V63.1h3.91v-6.14h5.44c1.61,0.18,1.61,2.08,1.61,2.09v4.05h3.37v-5.05C371.43,55.78,367.96,55.34,367.96,55.34z
			 M366.66,54.05h-5.44v-3.82h5.44c1.17,0,2.11,0.85,2.11,1.91c0,0.53-0.24,1-0.62,1.35C367.77,53.84,367.24,54.05,366.66,54.05z"/>
	</g>
</g>
</svg>
